<svg width="200" height="200" viewBox="0 0 109 109" fill="none" xmlns="http://www.w3.org/2000/svg">
<path d="M3 26.2651C3 13.4161 13.4161 3 26.2651 3H82.7349C95.5839 3 106 13.4161 106 26.2651V82.7349C106 95.5839 95.5839 106 82.7349 106H26.2651C13.4161 106 3 95.5839 3 82.7349V26.2651Z" stroke="white" stroke-width="6"/>
<path d="M51.1373 58.1896C51.1373 59.5093 51.2408 60.4991 51.448 61.159C51.6552 61.8188 52.0281 62.2725 52.5667 62.52C53.1468 62.7674 53.9962 62.8911 55.1149 62.8911H60.5219C62.0135 62.8911 63.1736 62.7468 64.0023 62.4581C64.8309 62.1282 65.4732 61.592 65.9289 60.8497C66.4261 60.0661 66.8819 58.9113 67.2962 57.3854L67.6691 55.9625L69.7822 56.7049V67.2834L68.5392 67.9639L68.042 67.2834C67.5863 66.706 66.7162 66.4173 65.4317 66.4173H40.5718L39.8881 64.4377L41.1933 64.0665C42.7263 63.6129 43.7414 63.0355 44.2386 62.3344C44.7358 61.6333 44.9844 60.396 44.9844 58.6226V30.2277C44.9844 28.3306 44.7151 27.0109 44.1765 26.2685C43.6378 25.5262 42.5813 24.9282 41.0068 24.4745L39.5774 24.1033L40.3232 22H53.934L54.742 22.9898L53.934 24.1033C52.8982 25.4643 52.1731 26.9078 51.7588 28.4337C51.3444 29.9596 51.1373 31.9599 51.1373 34.4344V58.1896Z" fill="white"/>
<path d="M26.7965 84.9003H30.4999V86.3501H25V75.3976H26.7965V84.9003Z" fill="white"/>
<path d="M33.7988 75.3976V86.3501H32.0023V75.3976H33.7988Z" fill="white"/>
<path d="M42.0199 80.7241C42.6082 80.8292 43.1073 81.1391 43.517 81.6539C43.9267 82.1687 44.1316 82.7518 44.1316 83.4032C44.1316 83.96 43.9845 84.4643 43.6903 84.9161C43.4067 85.3573 42.9917 85.7093 42.4454 85.9719C41.8991 86.2241 41.2634 86.3501 40.5385 86.3501H36.1575V75.3976H40.3337C41.0796 75.3976 41.7205 75.5237 42.2563 75.7758C42.7921 76.028 43.1966 76.3694 43.4697 76.8001C43.7429 77.2204 43.8794 77.6932 43.8794 78.2185C43.8794 78.8488 43.7114 79.3741 43.3752 79.7944C43.039 80.2146 42.5872 80.5245 42.0199 80.7241ZM37.9541 79.9992H40.1761C40.7644 79.9992 41.2214 79.8679 41.5471 79.6053C41.8833 79.3321 42.0514 78.9434 42.0514 78.4391C42.0514 77.9453 41.8833 77.5618 41.5471 77.2887C41.2214 77.005 40.7644 76.8632 40.1761 76.8632H37.9541V79.9992ZM40.3809 84.8845C40.9903 84.8845 41.4683 84.7375 41.815 84.4433C42.1617 84.1491 42.3351 83.7394 42.3351 83.2141C42.3351 82.6783 42.1512 82.2528 41.7835 81.9376C41.4158 81.6224 40.9273 81.4648 40.3179 81.4648H37.9541V84.8845H40.3809Z" fill="white"/>
<path d="M51.7729 86.3501L49.2514 81.9691H47.8804V86.3501H46.0839V75.3976H49.866C50.7065 75.3976 51.4157 75.5447 51.9935 75.8388C52.5818 76.133 53.0178 76.527 53.3015 77.0208C53.5957 77.5146 53.7428 78.0661 53.7428 78.6755C53.7428 79.3899 53.5326 80.0413 53.1124 80.6296C52.7027 81.2074 52.067 81.6014 51.2056 81.8115L53.9161 86.3501H51.7729ZM47.8804 80.535H49.866C50.5384 80.535 51.0427 80.3669 51.3789 80.0308C51.7256 79.6946 51.8989 79.2428 51.8989 78.6755C51.8989 78.1081 51.7309 77.6669 51.3947 77.3517C51.0585 77.026 50.5489 76.8632 49.866 76.8632H47.8804V80.535Z" fill="white"/>
<path d="M57.8375 76.8474V80.0623H61.6197V81.5279H57.8375V84.8845H62.0925V86.3501H56.041V75.3818H62.0925V76.8474H57.8375Z" fill="white"/>
<path d="M70.9083 84.1123H66.3224L65.5345 86.3501H63.6591L67.5831 75.3818H69.6633L73.5873 86.3501H71.6962L70.9083 84.1123ZM70.404 82.6468L68.6232 77.5566L66.8267 82.6468H70.404Z" fill="white"/>
<path d="M78.8708 75.3976C80.037 75.3976 81.056 75.6235 81.928 76.0752C82.8105 76.5165 83.4882 77.1574 83.9609 77.9978C84.4442 78.8278 84.6859 79.7996 84.6859 80.9133C84.6859 82.0269 84.4442 82.9935 83.9609 83.8129C83.4882 84.6324 82.8105 85.2628 81.928 85.704C81.056 86.1348 80.037 86.3501 78.8708 86.3501H75.2935V75.3976H78.8708ZM78.8708 84.8845C80.1525 84.8845 81.1348 84.5378 81.8177 83.8444C82.5006 83.151 82.8421 82.174 82.8421 80.9133C82.8421 79.642 82.5006 78.6492 81.8177 77.9348C81.1348 77.2204 80.1525 76.8632 78.8708 76.8632H77.09V84.8845H78.8708Z" fill="white"/>
</svg>
