<svg width="83" height="83" viewBox="0 0 83 83" fill="none" xmlns="http://www.w3.org/2000/svg">
<rect x="2" y="2" width="79" height="79" rx="18" stroke="black" stroke-width="4"/>
<path d="M39.8025 41.5572C39.8025 42.5621 39.8813 43.3158 40.0391 43.8183C40.1968 44.3208 40.4808 44.6662 40.8909 44.8546C41.3326 45.0431 41.9794 45.1373 42.8313 45.1373H46.9486C48.0844 45.1373 48.9678 45.0274 49.5988 44.8075C50.2298 44.5563 50.7188 44.1481 51.0658 43.5828C51.4444 42.9861 51.7915 42.1068 52.107 40.9448L52.3909 39.8614L54 40.4266V48.4818L53.0535 49L52.6749 48.4818C52.3278 48.0422 51.6653 47.8223 50.6872 47.8223H31.7572L31.2366 46.3149L32.2305 46.0323C33.3978 45.6869 34.1708 45.2472 34.5494 44.7133C34.928 44.1795 35.1173 43.2373 35.1173 41.8869V20.2651C35.1173 18.8205 34.9122 17.8156 34.5021 17.2503C34.0919 16.6851 33.2874 16.2297 32.0885 15.8843L31 15.6016L31.5679 14H41.9321L42.5473 14.7537L41.9321 15.6016C41.1433 16.638 40.5912 17.7371 40.2757 18.8991C39.9602 20.061 39.8025 21.5841 39.8025 23.4684V41.5572Z" fill="black"/>
<path d="M21.268 61.896H24.088V63H19.9V54.66H21.268V61.896ZM26.6 54.66V63H25.232V54.66H26.6ZM32.8601 58.716C33.3081 58.796 33.6881 59.032 34.0001 59.424C34.3121 59.816 34.4681 60.26 34.4681 60.756C34.4681 61.18 34.3561 61.564 34.1321 61.908C33.9161 62.244 33.6001 62.512 33.1841 62.712C32.7681 62.904 32.2841 63 31.7321 63H28.3961V54.66H31.5761C32.1441 54.66 32.6321 54.756 33.0401 54.948C33.4481 55.14 33.7561 55.4 33.9641 55.728C34.1721 56.048 34.2761 56.408 34.2761 56.808C34.2761 57.288 34.1481 57.688 33.8921 58.008C33.6361 58.328 33.2921 58.564 32.8601 58.716ZM29.7641 58.164H31.4561C31.9041 58.164 32.2521 58.064 32.5001 57.864C32.7561 57.656 32.8841 57.36 32.8841 56.976C32.8841 56.6 32.7561 56.308 32.5001 56.1C32.2521 55.884 31.9041 55.776 31.4561 55.776H29.7641V58.164ZM31.6121 61.884C32.0761 61.884 32.4401 61.772 32.7041 61.548C32.9681 61.324 33.1001 61.012 33.1001 60.612C33.1001 60.204 32.9601 59.88 32.6801 59.64C32.4001 59.4 32.0281 59.28 31.5641 59.28H29.7641V61.884H31.6121ZM40.2867 63L38.3667 59.664H37.3227V63H35.9547V54.66H38.8347C39.4747 54.66 40.0147 54.772 40.4547 54.996C40.9027 55.22 41.2347 55.52 41.4507 55.896C41.6747 56.272 41.7867 56.692 41.7867 57.156C41.7867 57.7 41.6267 58.196 41.3067 58.644C40.9947 59.084 40.5107 59.384 39.8547 59.544L41.9187 63H40.2867ZM37.3227 58.572H38.8347C39.3467 58.572 39.7307 58.444 39.9867 58.188C40.2507 57.932 40.3827 57.588 40.3827 57.156C40.3827 56.724 40.2547 56.388 39.9987 56.148C39.7427 55.9 39.3547 55.776 38.8347 55.776H37.3227V58.572ZM44.9047 55.764V58.212H47.7847V59.328H44.9047V61.884H48.1447V63H43.5367V54.648H48.1447V55.764H44.9047ZM54.8577 61.296H51.3657L50.7657 63H49.3377L52.3257 54.648H53.9097L56.8977 63H55.4577L54.8577 61.296ZM54.4737 60.18L53.1177 56.304L51.7497 60.18H54.4737ZM60.9209 54.66C61.8089 54.66 62.5849 54.832 63.2489 55.176C63.9209 55.512 64.4369 56 64.7969 56.64C65.1649 57.272 65.3489 58.012 65.3489 58.86C65.3489 59.708 65.1649 60.444 64.7969 61.068C64.4369 61.692 63.9209 62.172 63.2489 62.508C62.5849 62.836 61.8089 63 60.9209 63H58.1969V54.66H60.9209ZM60.9209 61.884C61.8969 61.884 62.6449 61.62 63.1649 61.092C63.6849 60.564 63.9449 59.82 63.9449 58.86C63.9449 57.892 63.6849 57.136 63.1649 56.592C62.6449 56.048 61.8969 55.776 60.9209 55.776H59.5649V61.884H60.9209Z" fill="black"/>
</svg>
